<?xml version="1.0" encoding="utf-8"?>
<!-- Generator: Adobe Illustrator 24.0.1, SVG Export Plug-In . SVG Version: 6.00 Build 0)  -->
<svg version="1.1" id="Layer_1" xmlns="http://www.w3.org/2000/svg" xmlns:xlink="http://www.w3.org/1999/xlink" x="0px" y="0px"
	 viewBox="0 0 72 80" style="enable-background:new 0 0 72 80;" xml:space="preserve">
<style type="text/css">
	.st0{fill:#6D6F83;}
</style>
<path class="st0" d="M64.8,0H7.2C3.22,0,0,3.22,0,7.2v65.6C0,76.78,3.22,80,7.2,80h57.6c3.98,0,7.2-3.22,7.2-7.2V7.2
	C72,3.22,68.78,0,64.8,0z M18,68V52l9,8L18,68z M46,68V44.11C45.96,42.24,45.06,40,41,40c-8.13,0-17.26,4.09-17.35,4.13L18,46.69V12
	h8v22.71c3.99-1.3,9.58-2.71,15-2.71c4.94,0,7.9,1.94,9.52,3.58c3.44,3.48,3.49,7.91,3.48,8.42v24H46z M48,25h-8
	c3.14-4.13,5.12-8.47,6-13h8C53.46,16.54,51.62,20.9,48,25z"/>
</svg>
