<?xml version="1.0" encoding="utf-8"?>
<!-- Generator: Adobe Illustrator 24.0.1, SVG Export Plug-In . SVG Version: 6.00 Build 0)  -->
<svg version="1.1" id="Layer_1" xmlns="http://www.w3.org/2000/svg" xmlns:xlink="http://www.w3.org/1999/xlink" x="0px" y="0px"
	 viewBox="0 0 52.83 21.86" style="enable-background:new 0 0 52.83 21.86;" xml:space="preserve">
<style type="text/css">
	.st0{fill:#6D7083;}
</style>
<g>
	<g>
		<path class="st0" d="M5.92,11.61c0.34,0,0.61-0.08,0.8-0.25S7,10.95,7,10.65V8.46C7,7.75,7.22,7.2,7.64,6.81
			c0.42-0.39,1.02-0.59,1.79-0.59v1.34c-0.32,0-0.56,0.08-0.73,0.25S8.43,8.22,8.43,8.53v2.33c0,0.67-0.21,1.15-0.62,1.44
			c-0.42,0.29-1.05,0.44-1.89,0.44V11.61z M7.64,17.84C7.22,17.45,7,16.9,7,16.19v-2.2c0-0.3-0.09-0.54-0.28-0.7
			s-0.46-0.25-0.8-0.25V11.9c0.84,0,1.47,0.15,1.89,0.45c0.42,0.3,0.62,0.8,0.62,1.5v2.26c0,0.31,0.09,0.55,0.26,0.72
			s0.42,0.25,0.73,0.25v1.34C8.65,18.42,8.06,18.23,7.64,17.84z"/>
		<path class="st0" d="M12.53,7.59h1.61v8.53h-1.61V7.59z M13.17,11.14h2.96c0.16,0,0.31-0.04,0.43-0.12s0.22-0.2,0.29-0.35
			s0.1-0.33,0.11-0.53c0-0.2-0.03-0.38-0.1-0.53s-0.17-0.27-0.29-0.35s-0.27-0.12-0.44-0.12h-2.96V7.59h3.09
			c0.47,0,0.88,0.11,1.24,0.32c0.36,0.21,0.63,0.51,0.83,0.89s0.29,0.83,0.29,1.34s-0.1,0.95-0.29,1.34s-0.47,0.68-0.83,0.89
			s-0.77,0.32-1.23,0.32h-3.09V11.14z M14.96,12.43l1.72-0.27l2.3,3.96h-1.95L14.96,12.43z"/>
		<path class="st0" d="M20.35,7.6h1.61v8.52h-1.61V7.6z M20.93,7.6h5.13v1.55h-5.13V7.6z M20.93,11.11h4.48v1.55h-4.48V11.11z
			 M20.93,14.57h5.13v1.55h-5.13V14.57z"/>
		<path class="st0" d="M29.01,16.08c-0.39-0.08-0.75-0.2-1.1-0.36s-0.65-0.35-0.92-0.57l0.74-1.32c0.33,0.27,0.71,0.48,1.14,0.62
			s0.87,0.22,1.32,0.22c0.52,0,0.93-0.09,1.22-0.27s0.43-0.43,0.43-0.75v-0.01c0-0.23-0.06-0.41-0.19-0.54s-0.3-0.23-0.5-0.29
			s-0.47-0.12-0.8-0.17c-0.01,0-0.02-0.01-0.03-0.01s-0.02,0-0.03-0.01l-0.13-0.02c-0.57-0.09-1.04-0.2-1.42-0.34
			s-0.69-0.37-0.96-0.71s-0.39-0.82-0.39-1.44v-0.01c0-0.55,0.12-1.02,0.37-1.41s0.6-0.69,1.07-0.89c0.47-0.21,1.04-0.31,1.7-0.31
			c0.3,0,0.62,0.04,0.93,0.11s0.63,0.17,0.93,0.3c0.3,0.13,0.59,0.29,0.87,0.48L32.6,9.76c-0.33-0.23-0.67-0.4-1.03-0.53
			s-0.7-0.19-1.03-0.19c-0.49,0-0.87,0.08-1.14,0.24s-0.4,0.39-0.4,0.68v0.01c0,0.25,0.07,0.44,0.21,0.58s0.31,0.25,0.52,0.31
			s0.5,0.14,0.87,0.21c0.02,0,0.03,0.01,0.05,0.01s0.03,0,0.05,0.01c0.02,0,0.05,0.01,0.07,0.01s0.04,0.01,0.07,0.01
			c0.54,0.11,0.99,0.23,1.35,0.38c0.36,0.15,0.66,0.39,0.91,0.73s0.36,0.79,0.36,1.37v0.01c0,0.54-0.13,1.01-0.38,1.39
			s-0.62,0.68-1.11,0.88c-0.49,0.2-1.07,0.3-1.75,0.3C29.8,16.21,29.4,16.17,29.01,16.08z"/>
		<path class="st0" d="M33.74,7.6h6.25v1.55h-6.25V7.6z M36.06,8.3h1.61v7.82h-1.61V8.3z"/>
		<path class="st0" d="M43.53,12.35c-0.42-0.3-0.62-0.8-0.62-1.49V8.53c0-0.31-0.09-0.55-0.26-0.71s-0.42-0.25-0.73-0.25V6.22
			c0.77,0,1.37,0.2,1.79,0.59s0.63,0.94,0.63,1.65v2.13c0,0.3,0.09,0.54,0.28,0.7s0.46,0.25,0.8,0.25v1.25
			C44.58,12.8,43.95,12.65,43.53,12.35z M41.92,17.08c0.32,0,0.56-0.08,0.73-0.25s0.26-0.41,0.26-0.72v-2.26
			c0-0.71,0.21-1.23,0.62-1.54s1.05-0.47,1.89-0.47v1.25c-0.34,0-0.61,0.08-0.8,0.25s-0.28,0.4-0.28,0.7v2.14
			c0,0.71-0.21,1.26-0.63,1.65s-1.02,0.58-1.79,0.58V17.08z"/>
	</g>
</g>
</svg>
