<?xml version="1.0" encoding="utf-8"?>
<!-- Generator: Adobe Illustrator 24.0.1, SVG Export Plug-In . SVG Version: 6.00 Build 0)  -->
<svg version="1.1" id="Layer_1" xmlns="http://www.w3.org/2000/svg" xmlns:xlink="http://www.w3.org/1999/xlink" x="0px" y="0px"
	 viewBox="0 0 149.76 150" style="enable-background:new 0 0 149.76 150;" xml:space="preserve">
<style type="text/css">
	.st0{fill:#0D0A3F;}
	.st1{fill:#4E3F99;}
	.st2{fill:#222050;}
	.st3{fill:#C6C6C5;}
	.st4{fill:#EFB43E;}
	.st5{fill:#EED053;}
	.st6{fill:#7D7D7D;}
	.st7{fill:#A3A3A3;}
	.st8{fill:none;stroke:#7D7D7D;stroke-miterlimit:10;}
	.st9{fill:#9B9A9A;}
	.st10{fill:#666766;}
</style>
<rect class="st0" width="149.76" height="150"/>
<title>spacequestlogo</title>
<path class="st1" d="M79,87.2c-1.36,1.25-7.58,3.24-12.92,6.47c-6.93,4.19-13.29,9.46-15.12,7.46s4-7.87,8.76-14.41
	c3.68-5,6.21-11,7.58-12.3c3.13-2.87,8.29-2.33,11.52,1.19S82.14,84.33,79,87.2z"/>
<path class="st1" d="M98.15,108.09c-1.36,1.25-7.58,3.24-12.92,6.47C78.3,118.75,71.94,124,70.11,122s4-7.88,8.76-14.41
	c3.68-5,6.21-11.06,7.57-12.31C89.57,92.44,94.73,93,98,96.51S101.28,105.22,98.15,108.09z"/>
<path class="st2" d="M81.05,104.34l-2.19,3.2c5.7-0.72,13-4.18,20.28-9.75l-1.49-1.63L81.05,104.34z"/>
<ellipse transform="matrix(0.7374 -0.6755 0.6755 0.7374 -29.5009 84.9801)" class="st3" cx="94.54" cy="80.43" rx="32.67" ry="14.17"/>
<path class="st4" d="M70.37,113c-1.06,1-6.12,2.33-10.38,4.76c-5.53,3.16-10.53,7.25-12.15,5.48s2.89-6.39,6.52-11.62
	c2.8-4,4.59-9,5.65-9.93c2.45-2.24,6.76-1.53,9.62,1.6S72.82,110.73,70.37,113z"/>
<path class="st5" d="M67.5,111.76c-0.77,0.7-4.26,1.83-7.25,3.64c-3.89,2.36-7.46,5.32-8.48,4.21s2.24-4.41,4.93-8.08
	c2.08-2.82,3.5-6.2,4.27-6.9c2.19-1.56,5.23-1.06,6.79,1.13C69.06,107.58,68.96,110.06,67.5,111.76z"/>
<rect x="68.62" y="97.14" transform="matrix(0.7374 -0.6755 0.6755 0.7374 -50.8742 74.4319)" class="st6" width="3.33" height="11"/>
<path class="st7" d="M70.54,100.46c3.61-4,6.7-8.12,8.1-9.4c3.49-3.2,7.5-4.5,9-2.91s-0.19,5.47-3.69,8.67
	c-1.39,1.28-5.74,4-10.06,7.24L70.54,100.46z"/>
<path class="st2" d="M84.71,94.73c-1.45,1.34-6.12,4.24-10.62,7.67c-6.29,4.79-12.7,10.11-13.55,9.18s5-6.85,10.33-12.69
	c3.81-4.18,7.13-8.58,8.57-9.89c3.49-3.2,7.5-4.5,9-2.91S88.2,91.53,84.71,94.73z"/>
<circle class="st7" cx="102.72" cy="74.3" r="6"/>
<circle class="st6" cx="102.78" cy="72.89" r="6"/>
<circle class="st7" cx="112.18" cy="65.63" r="2.92"/>
<circle class="st6" cx="112.24" cy="64.22" r="2.92"/>
<line class="st8" x1="53.22" y1="74.75" x2="53.75" y2="46.96"/>
<polyline class="st8" points="81.69,21.89 76.41,44.75 53.75,46.96 31.33,56.84 "/>
<line class="st8" x1="76.41" y1="44.75" x2="100.66" y2="48.58"/>
<circle class="st6" cx="53.75" cy="46.96" r="3.56"/>
<circle class="st6" cx="100.82" cy="48.81" r="3.56"/>
<circle class="st9" cx="31.33" cy="56.84" r="2.22"/>
<circle class="st9" cx="81.69" cy="21.89" r="2.22"/>
<circle class="st10" cx="53.22" cy="74.75" r="5.56"/>
<circle class="st10" cx="75.97" cy="44.11" r="7.11"/>
</svg>
