<?xml version="1.0" encoding="utf-8"?>
<!-- Generator: Adobe Illustrator 24.0.1, SVG Export Plug-In . SVG Version: 6.00 Build 0)  -->
<svg version="1.1"
	 id="svg2985" xmlns:cc="http://creativecommons.org/ns#" xmlns:dc="http://purl.org/dc/elements/1.1/" xmlns:inkscape="http://www.inkscape.org/namespaces/inkscape" xmlns:rdf="http://www.w3.org/1999/02/22-rdf-syntax-ns#" xmlns:sodipodi="http://sodipodi.sourceforge.net/DTD/sodipodi-0.dtd" xmlns:svg="http://www.w3.org/2000/svg"
	 xmlns="http://www.w3.org/2000/svg" xmlns:xlink="http://www.w3.org/1999/xlink" x="0px" y="0px" viewBox="0 0 256 256"
	 style="enable-background:new 0 0 256 256;" xml:space="preserve">
<style type="text/css">
	.st0{fill:#6D6F83;}
	.st1{fill:url(#path3035_1_);}
	.st2{fill:#393A44;}
</style>
<sodipodi:namedview  bordercolor="#666666" borderopacity="1" fit-margin-bottom="10" fit-margin-left="10" fit-margin-right="10" fit-margin-top="10" gridtolerance="10" guidetolerance="10" id="namedview2987" inkscape:current-layer="g2993" inkscape:cx="217.03271" inkscape:cy="157.19018" inkscape:pageopacity="0" inkscape:pageshadow="2" inkscape:snap-bbox="true" inkscape:snap-page="true" inkscape:window-height="1017" inkscape:window-maximized="1" inkscape:window-width="1920" inkscape:window-x="-8" inkscape:window-y="-8" inkscape:zoom="0.73710525" objecttolerance="10" pagecolor="#ffffff" showgrid="false">
	</sodipodi:namedview>
<path id="path3005" inkscape:connector-curvature="0" class="st0" d="M137.93,195.6c-0.11-1.4-0.18-2.31-0.18-2.31
	s-4.24-28.62-9.3-37.16c-0.8-1.35,0.09-6.91,2.32-15.15c1.3,2.25,6.81,11.9,7.91,15.01c1.24,3.51,1.51,4.52,1.51,4.52
	s-3.02-15.53-7.97-24.6c1.09-3.66,2.38-7.72,3.85-12.05c1.88,3.29,6.37,11.26,7.36,14.03c0.2,0.57,0.37,1.05,0.52,1.49
	c0.05-0.27,0.1-0.53,0.15-0.8c-1.13-4.81-3.36-13.19-6.41-19.38c6.77-35.22,29.85-82.3,53.51-103.31H36.83
	c-10.35,0-18.81,8.47-18.81,18.81v170.23c0,10.34,8.46,18.81,18.81,18.81H138.5C137.76,214.89,137.52,205.07,137.93,195.6"/>
<linearGradient id="path3035_1_" gradientUnits="userSpaceOnUse" x1="-177.6299" y1="543.3451" x2="-168.7563" y2="543.3451" gradientTransform="matrix(-7.794998e-07 17.8181 17.8181 7.794998e-07 -9576.834 3189.9326)">
	<stop  offset="0" style="stop-color:#9591AE"/>
	<stop  offset="0.9202" style="stop-color:#6D6F83"/>
	<stop  offset="1" style="stop-color:#6D6F83"/>
</linearGradient>
<path id="path3035" inkscape:connector-curvature="0" class="st1" d="M130.77,140.99c1.3,2.25,6.81,11.9,7.91,15.01
	c1.24,3.51,1.51,4.52,1.51,4.52s-3.02-15.53-7.97-24.6c1.09-3.66,2.38-7.72,3.85-12.05c1.72,3.01,5.62,9.93,7.03,13.2
	c0.05-0.62,0.1-1.24,0.16-1.85c-1.25-4.8-3.15-11.08-5.57-16c6.23-32.43,26.29-74.9,47.9-97.82H36.83
	c-7.35,0-13.32,5.98-13.32,13.32v157.81c33.69-12.93,74.31-24.75,109.27-24.24c-1.3-5.01-2.78-9.53-4.33-12.15
	C127.65,154.78,128.54,149.22,130.77,140.99"/>
<path id="path3045" inkscape:connector-curvature="0" class="st2" d="M227.19,10.34c-10.57-9.43-23.37-5.64-36,5.57
	c-1.88,1.67-3.75,3.51-5.61,5.49c-21.61,22.93-41.67,65.39-47.9,97.82c2.43,4.92,4.32,11.21,5.57,16c0.32,1.23,0.61,2.39,0.84,3.37
	c0.55,2.33,0.84,3.84,0.84,3.84s-0.19-0.73-0.99-3.04c-0.15-0.44-0.32-0.92-0.52-1.49c-0.09-0.23-0.2-0.52-0.33-0.82
	c-1.41-3.28-5.31-10.19-7.03-13.2c-1.47,4.33-2.77,8.38-3.85,12.05c4.95,9.06,7.97,24.6,7.97,24.6s-0.26-1.01-1.51-4.52
	c-1.11-3.11-6.61-12.75-7.91-15.01c-2.23,8.23-3.12,13.79-2.32,15.15c1.55,2.62,3.03,7.15,4.33,12.15c2.93,11.28,4.97,25,4.97,25
	s0.07,0.91,0.18,2.31c-0.41,9.47-0.16,19.29,0.57,28.16c0.97,11.75,2.8,21.84,5.13,27.24l1.58-0.86
	c-3.42-10.64-4.81-24.58-4.2-40.66c0.92-24.58,6.58-54.22,17.03-85.12c17.66-46.64,42.16-84.06,64.58-101.93
	c-20.44,18.46-48.09,78.2-56.37,100.32c-9.27,24.77-15.84,48.02-19.8,70.29c6.83-20.88,28.92-29.86,28.92-29.86
	s10.83-13.36,23.49-32.45c-7.58,1.73-20.04,4.69-24.21,6.44c-6.15,2.58-7.81,3.46-7.81,3.46s19.93-12.14,37.03-17.63
	C227.38,85.97,252.99,33.36,227.19,10.34"/>
</svg>
